<svg width="30" height="30" viewBox="0 0 30 30" fill="none" xmlns="http://www.w3.org/2000/svg">
<rect width="30" height="30" fill="#E5E5E5"/>
<rect width="320" height="5619" transform="translate(-275 -24)" fill="white"/>
<rect x="-275" y="-24" width="320" height="433" fill="url(#paint0_radial_0_1)"/>
<rect x="-275" y="-24" width="320" height="80" fill="#3F2AFF"/>
<path fill-rule="evenodd" clip-rule="evenodd" d="M4.6875 22.5625C4.6875 22.3139 4.78627 22.0754 4.96209 21.8996C5.1379 21.7238 5.37636 21.625 5.625 21.625H24.375C24.6236 21.625 24.8621 21.7238 25.0379 21.8996C25.2137 22.0754 25.3125 22.3139 25.3125 22.5625C25.3125 22.8111 25.2137 23.0496 25.0379 23.2254C24.8621 23.4012 24.6236 23.5 24.375 23.5H5.625C5.37636 23.5 5.1379 23.4012 4.96209 23.2254C4.78627 23.0496 4.6875 22.8111 4.6875 22.5625ZM4.6875 15.0625C4.6875 14.8139 4.78627 14.5754 4.96209 14.3996C5.1379 14.2238 5.37636 14.125 5.625 14.125H24.375C24.6236 14.125 24.8621 14.2238 25.0379 14.3996C25.2137 14.5754 25.3125 14.8139 25.3125 15.0625C25.3125 15.3111 25.2137 15.5496 25.0379 15.7254C24.8621 15.9012 24.6236 16 24.375 16H5.625C5.37636 16 5.1379 15.9012 4.96209 15.7254C4.78627 15.5496 4.6875 15.3111 4.6875 15.0625ZM4.6875 7.5625C4.6875 7.31386 4.78627 7.0754 4.96209 6.89959C5.1379 6.72377 5.37636 6.625 5.625 6.625H24.375C24.6236 6.625 24.8621 6.72377 25.0379 6.89959C25.2137 7.0754 25.3125 7.31386 25.3125 7.5625C25.3125 7.81114 25.2137 8.0496 25.0379 8.22541C24.8621 8.40123 24.6236 8.5 24.375 8.5H5.625C5.37636 8.5 5.1379 8.40123 4.96209 8.22541C4.78627 8.0496 4.6875 7.81114 4.6875 7.5625Z" fill="white"/>
<rect width="320" height="433" transform="translate(-275 -24)" fill="#2F2C45"/>
<path fill-rule="evenodd" clip-rule="evenodd" d="M6.75 6.75002C6.94891 6.55111 7.2187 6.43936 7.5 6.43936C7.7813 6.43936 8.05109 6.55111 8.25 6.75002L23.25 21.75C23.4489 21.9489 23.5606 22.2187 23.5606 22.5C23.5606 22.7813 23.4489 23.0511 23.25 23.25C23.0511 23.4489 22.7813 23.5607 22.5 23.5607C22.2187 23.5607 21.9489 23.4489 21.75 23.25L6.75 8.25002C6.55109 8.05111 6.43934 7.78132 6.43934 7.50002C6.43934 7.21871 6.55109 6.94893 6.75 6.75002Z" fill="white"/>
<path fill-rule="evenodd" clip-rule="evenodd" d="M23.25 6.75002C23.4489 6.94893 23.5607 7.21871 23.5607 7.50002C23.5607 7.78132 23.4489 8.0511 23.25 8.25001L8.25001 23.25C8.0511 23.4489 7.78132 23.5607 7.50001 23.5607C7.21871 23.5607 6.94893 23.4489 6.75002 23.25C6.5511 23.0511 6.43936 22.7813 6.43936 22.5C6.43936 22.2187 6.5511 21.9489 6.75002 21.75L21.75 6.75002C21.9489 6.5511 22.2187 6.43936 22.5 6.43936C22.7813 6.43936 23.0511 6.5511 23.25 6.75002Z" fill="white"/>
<defs>
<radialGradient id="paint0_radial_0_1" cx="0" cy="0" r="1" gradientUnits="userSpaceOnUse" gradientTransform="translate(-58.1111 342.194) rotate(90) scale(212.17 156.8)">
<stop stop-color="#555681"/>
<stop offset="1" stop-color="#2E2B44"/>
</radialGradient>
</defs>
</svg>
